<svg xmlns="http://www.w3.org/2000/svg" width="960" height="560" viewBox="0 0 960 560" role="img" aria-labelledby="title desc">
  <title id="title">Academy listing card preview</title>
  <desc id="desc">Preview of a public academy listing card with academy name, affiliation badge, location, distance, description, tags, event chip, and details button.</desc>
  <rect width="960" height="560" fill="#f8faf7"/>
  <rect x="280" y="42" width="400" height="476" rx="8" fill="#ffffff" stroke="#e7e5e4"/>
  <g font-family="Arial, sans-serif">
    <text x="304" y="88" font-size="24" font-weight="900" fill="#000000">Kingston Submission</text>
    <text x="304" y="122" font-size="24" font-weight="900" fill="#000000">Academy</text>
    <rect x="554" y="58" width="104" height="32" rx="7" fill="#fef3c7"/>
    <text x="574" y="79" font-size="13" font-weight="700" fill="#92400e">Independent</text>
    <circle cx="310" cy="154" r="5" fill="none" stroke="#57534e" stroke-width="1.5"/>
    <circle cx="310" cy="154" r="1.8" fill="#57534e"/>
    <path d="M310 166 C304 158 302 153 302 150 C302 145.6 305.6 142 310 142 C314.4 142 318 145.6 318 150 C318 153 316 158 310 166 Z" fill="none" stroke="#57534e" stroke-width="1.3"/>
    <text x="326" y="160" font-size="16" fill="#57534e">Kingston, KT1 0RF</text>
    <text x="304" y="188" font-size="16" font-weight="800" fill="#0f766e">5.7 miles away</text>
    <text x="304" y="236" font-size="16" fill="#292524">Southwest London academy with open mats,</text>
    <text x="304" y="264" font-size="16" fill="#292524">fundamentals, and drop-in training.</text>
    <rect x="304" y="298" width="32" height="28" rx="6" fill="#f5f5f4"/>
    <text x="313" y="317" font-size="13" font-weight="700" fill="#292524">Gi</text>
    <rect x="350" y="298" width="62" height="28" rx="6" fill="#f5f5f4"/>
    <text x="363" y="317" font-size="13" font-weight="700" fill="#292524">No-Gi</text>
    <rect x="426" y="298" width="112" height="28" rx="6" fill="#f5f5f4"/>
    <text x="438" y="317" font-size="13" font-weight="700" fill="#292524">Beginner friendly</text>
    <rect x="552" y="298" width="96" height="28" rx="6" fill="#f5f5f4"/>
    <text x="564" y="317" font-size="13" font-weight="700" fill="#292524">Competition</text>
    <rect x="304" y="342" width="112" height="28" rx="6" fill="#ecfdf5"/>
    <text x="316" y="361" font-size="13" font-weight="800" fill="#115e59">Drop-in £18.00</text>
    <rect x="304" y="410" width="134" height="30" rx="6" fill="#f5f5f4"/>
    <text x="318" y="430" font-size="13" font-weight="700" fill="#292524">Tue 16 Jun · 12:00</text>
    <rect x="304" y="462" width="72" height="38" rx="7" fill="#000000"/>
    <text x="326" y="486" font-size="15" font-weight="900" fill="#ffffff">Details</text>
  </g>
</svg>
