<svg xmlns="http://www.w3.org/2000/svg" width="960" height="360" viewBox="0 0 960 360" role="img" aria-labelledby="title desc">
  <title id="title">Table component preview</title>
  <desc id="desc">Preview showing a responsive table with headers, rows, status badges, actions, and pagination.</desc>
  <rect width="960" height="360" fill="#f8faf7"/>
  <rect x="64" y="54" width="832" height="252" rx="8" fill="#ffffff" stroke="#e7e5e4"/>
  <g font-family="Arial, sans-serif">
    <rect x="64" y="54" width="832" height="48" rx="8" fill="#f5f5f4"/>
    <text x="92" y="84" font-size="13" font-weight="700" fill="#44403c">NAME</text>
    <text x="300" y="84" font-size="13" font-weight="700" fill="#44403c">STATUS</text>
    <text x="492" y="84" font-size="13" font-weight="700" fill="#44403c">UPDATED</text>
    <text x="710" y="84" font-size="13" font-weight="700" fill="#44403c">ACTIONS</text>
    <line x1="64" y1="150" x2="896" y2="150" stroke="#f5f5f4"/>
    <line x1="64" y1="198" x2="896" y2="198" stroke="#f5f5f4"/>
    <text x="92" y="132" font-size="15" font-weight="700" fill="#1c1917">North London BJJ</text>
    <rect x="300" y="113" width="82" height="28" rx="6" fill="#ecfdf5" stroke="#99f6e4"/><text x="318" y="132" font-size="12" font-weight="700" fill="#115e59">Active</text>
    <text x="492" y="132" font-size="14" fill="#57534e">5 Jun 2026</text>
    <rect x="710" y="112" width="56" height="30" rx="6" fill="#ffffff" stroke="#d6d3d1"/><text x="727" y="132" font-size="12" font-weight="700" fill="#292524">Edit</text>
    <text x="92" y="180" font-size="15" font-weight="700" fill="#1c1917">Friday Open Mat</text>
    <rect x="300" y="161" width="92" height="28" rx="6" fill="#fff7ed" stroke="#fed7aa"/><text x="320" y="180" font-size="12" font-weight="700" fill="#9a3412">Pending</text>
    <text x="492" y="180" font-size="14" fill="#57534e">4 Jun 2026</text>
    <rect x="710" y="160" width="56" height="30" rx="6" fill="#ffffff" stroke="#d6d3d1"/><text x="727" y="180" font-size="12" font-weight="700" fill="#292524">View</text>
    <rect x="664" y="252" width="82" height="32" rx="6" fill="#ffffff" stroke="#d6d3d1"/><text x="684" y="273" font-size="12" font-weight="700" fill="#292524">Previous</text>
    <text x="760" y="273" font-size="12" font-weight="700" fill="#57534e">Page 1 of 4</text>
    <rect x="840" y="252" width="56" height="32" rx="6" fill="#ffffff" stroke="#d6d3d1"/><text x="856" y="273" font-size="12" font-weight="700" fill="#292524">Next</text>
  </g>
</svg>
